<svg xmlns="http://www.w3.org/2000/svg" width="600" height="420" viewBox="0 0 600 420">
<defs><linearGradient id="g" x1="0" y1="0" x2="1" y2="1"><stop stop-color="#075985"/><stop offset="1" stop-color="#38bdf8"/></linearGradient><radialGradient id="r"><stop stop-color="#fff" stop-opacity=".35"/><stop offset="1" stop-color="#fff" stop-opacity="0"/></radialGradient></defs>
<rect width="600" height="420" fill="url(#g)"/><circle cx="105" cy="70" r="170" fill="url(#r)"/><circle cx="520" cy="360" r="210" fill="#020617" opacity=".18"/><path d="M300 95 L318 250 L282 250 Z" fill="#e2e8f0"/><circle cx="300" cy="92" r="18" fill="white"/><path d="M300 92 L300 20" stroke="white" stroke-width="10" stroke-linecap="round"/><path d="M300 92 L232 132" stroke="white" stroke-width="10" stroke-linecap="round"/><path d="M300 92 L368 132" stroke="white" stroke-width="10" stroke-linecap="round"/><path d="M100 265 C180 235 250 300 360 260 C430 236 500 252 560 232 L560 420 L40 420 L40 278 C62 274 80 271 100 265Z" fill="#0e7490" opacity=".55"/>
<rect x="0" y="330" width="600" height="90" fill="#020617" opacity=".58"/><text x="32" y="370" font-family="Noto Sans TC, sans-serif" font-size="32" font-weight="800" fill="white">離岸主力 10MW</text><text x="32" y="402" font-family="Noto Sans TC, sans-serif" font-size="18" fill="#dbeafe">OS10 · turbine · 61400-3-1</text>
</svg>